<svg width="28" height="33" viewBox="0 0 28 33" fill="none" xmlns="http://www.w3.org/2000/svg">
<path d="M8.99414 11.8646V16.4479H12.1467V14.3712C12.1467 13.465 12.9226 12.7305 13.8799 12.7305C14.8372 12.7305 15.6131 13.465 15.6131 14.3712V16.4494H18.7657V11.8661L13.8815 7.7561L8.99571 11.8661L8.99414 11.8646Z" fill="#0C2627"/>
<path d="M13.8782 0.00149292C6.22627 0.00149292 0 5.89553 0 13.1392C0 20.3828 11.3659 31.1467 12.6623 32.347C12.9982 32.6591 13.4351 32.8143 13.8735 32.8143C14.3119 32.8143 14.7235 32.668 15.0563 32.3724C16.3558 31.2229 27.7549 20.9173 27.7549 13.1377C27.7549 5.89404 21.5286 0 13.8766 0L13.8782 0.00149292ZM22.2304 18.0897C22.2304 18.5241 22.0474 18.9421 21.7226 19.2497C21.3977 19.5572 20.9561 19.7304 20.4972 19.7304H7.26083C6.30355 19.7304 5.52763 18.9944 5.52763 18.0897V11.1297C5.52763 10.6609 5.73896 10.2145 6.10957 9.90402L12.7285 4.33543C13.3846 3.78305 14.375 3.78305 15.0326 4.33543L21.65 9.90402C22.0206 10.216 22.232 10.6624 22.232 11.1297V18.0912L22.2304 18.0897Z" fill="#0C2627"/>
</svg>
