<svg width="21" height="23" viewBox="0 0 21 23" fill="none" xmlns="http://www.w3.org/2000/svg">
<path d="M7.32042 2.09671V3.94449H19.1582V20.5681H15.7759V18.7214H17.4666V13.1791H15.7759V11.3324H17.4666V5.7912H12.3935V7.63791H10.7028V5.7912H7.32042V11.3324H14.0852V13.1791H12.3945V18.7214H14.0852V20.5681H10.7028V13.1791H7.32042V20.5681H3.0922C2.62625 20.5681 2.24636 20.1531 2.24636 19.6453C2.24636 19.1374 2.62625 18.7214 3.0922 18.7214H5.62874V0.25H3.0922C1.69137 0.25 0.555664 1.4905 0.555664 3.0206V19.6453C0.555664 21.1743 1.69137 22.4159 3.0922 22.4159H20.8489V2.09671H7.32042Z" fill="#0C2627"/>
</svg>
